<svg width="14" height="18" viewBox="0 0 14 18" fill="none" xmlns="http://www.w3.org/2000/svg">
    <g clip-path="url(#clip0)">
        <path d="M0.147488 6.77131C1.33807 8.7574 2.27822 10.8766 2.94749 13.0828C3.44854 14.5205 3.92012 15.9582 4.33275 17.3097C4.74538 18.6611 7.28012 17.856 7.56012 16.7489C8.00888 14.5663 8.56959 12.4071 9.24012 10.2793C9.7624 8.56667 10.4024 6.89034 11.1559 5.26172C11.505 4.52082 11.8986 3.80071 12.3349 3.10517C12.5132 2.82914 12.7101 2.56498 12.9243 2.31444L13.2633 1.92626C13.2633 1.92626 13.7054 1.53808 13.4401 1.75374C13.9412 1.3368 14.3096 0.675461 13.6464 0.229774C13.2814 0.0505094 12.8718 -0.0243667 12.465 0.0137931C12.0583 0.0519529 11.6708 0.201592 11.3475 0.445429C9.32415 2.386 7.84723 4.80227 7.05907 7.4614C6.09703 10.0356 5.30454 12.6672 4.68644 15.34C4.5538 15.9007 4.42117 16.4614 4.30328 17.0221L7.53065 16.4614C7.08854 15.0237 6.58749 13.586 6.05696 12.1483C5.33986 9.83095 4.35085 7.60213 3.10959 5.50613C2.35801 4.31284 -0.707248 5.463 0.147488 6.77131Z"
              fill="#FF5F4E"/>
    </g>
    <defs>
        <clipPath id="clip0">
            <rect width="14" height="18" fill="white"/>
        </clipPath>
    </defs>
</svg>
